<svg width="160" height="160" viewBox="0 0 160 160" fill="none" xmlns="http://www.w3.org/2000/svg">
  <defs>
    <linearGradient id="bg" x1="20" y1="18" x2="140" y2="144" gradientUnits="userSpaceOnUse">
      <stop stop-color="#8EE3F5"/>
      <stop offset="0.52" stop-color="#72B8FF"/>
      <stop offset="1" stop-color="#7A79FF"/>
    </linearGradient>
    <linearGradient id="shirt" x1="53" y1="96" x2="110" y2="144" gradientUnits="userSpaceOnUse">
      <stop stop-color="#203A71"/>
      <stop offset="1" stop-color="#13264A"/>
    </linearGradient>
  </defs>
  <rect x="8" y="8" width="144" height="144" rx="48" fill="url(#bg)"/>
  <circle cx="80" cy="69" r="35" fill="#FFD8BE"/>
  <path d="M49 63C49 43 62 30 80 30C98 30 111 44 111 63V71H49V63Z" fill="#233559"/>
  <path d="M57 49C62 38 71 32 82 32C95 32 104 39 108 52C100 48 92 48 84 51C75 54 66 57 57 49Z" fill="#172742"/>
  <path d="M63 88H97V102C97 111 90 118 80 118C70 118 63 111 63 102V88Z" fill="#FFC9A6"/>
  <path d="M40 145C43 116 59 102 80 102C101 102 117 116 120 145H40Z" fill="url(#shirt)"/>
  <path d="M66 106L80 118L94 106L101 145H59L66 106Z" fill="#F6FBFF"/>
  <circle cx="67.5" cy="71" r="4.5" fill="#243B63"/>
  <circle cx="92.5" cy="71" r="4.5" fill="#243B63"/>
  <path d="M70 84C73 88 77 90 80 90C83 90 87 88 90 84" stroke="#D67C73" stroke-width="4" stroke-linecap="round"/>
  <circle cx="48" cy="48" r="10" fill="white" fill-opacity="0.22"/>
  <circle cx="122" cy="120" r="16" fill="white" fill-opacity="0.14"/>
</svg>
